<svg xmlns="http://www.w3.org/2000/svg" viewBox="0 0 512 512"><path fill="none" d="M0 0h512v512H0z"/><path d="M211.719 367.797C219.469 379.281 224 393.109 224 408c0 39.734-32.266 72-72 72-39.758 0-72-32.266-72-72 0-23.172 11.148-43.563 28.164-56.734 1.852 5.594 4.336 11.125 8.289 15.906 7.055 8.516 20.336 18.266 43.531 16.344 7.578-.641 15.844-2.547 24.586-5.641 8.875-3.078 18.508-6.5 27.149-10.078zM389.875 32.578c-13.344 3.797-24.156 10.672-38.813 18.328-90 47-196.25 39.25-220 77-27.469 51.672-48.883 89.203-48.945 107.625-.016.063-.055.094-.07.141.586 19.953 19.625 58.438 29.07 75.969 6.789-15.516 17.492-29.219 32.25-40.688 7.414-5.766 13.289-9.922 18.617-13.5-3.016-9.25-6.945-20.016-10.875-28.203 10.742-7.391 26.078-26.484 31.398-40.313 13.227.094 30.25-3.172 44.773-6.938 6.406 6.844 12.977 13.563 21.766 20.016-3.961 14.344-7.07 27.063-23.438 38.359-22.313 15.438-42.734 21.578-69.484 43.109-16.086 12.953-26.07 28.203-30.625 45.641-3.148 12.094 4.734 53.016 58 33.141 10.023-3.75 23.398-8.531 34.875-14.25 23.797-11.813 52.922-40.781 61-44.828 15.234-7.641 49.813-10.656 86.313-35.016 12.531-8.375 22.063-20.688 26.477-33.625 33.242-64.828 60.883-59.656 68.633-72.563C477.734 133.734 423.563 23 389.875 32.578z"/></svg>
